<svg id="Layer_1" enable-background="new 0 0 128 128" height="512" viewBox="0 0 128 128" width="512" xmlns="http://www.w3.org/2000/svg"><g><circle id="XMLID_9_" cx="64" cy="64" fill="#6fb1e1" r="64"/><g id="XMLID_240_"><g id="XMLID_431_"><path id="XMLID_583_" d="m118.4 97.6c-8.4 13.6-21.6 23.5-36.4 27.8-.5.2-1.1.3-1.7.5-2.9.8-5.9 1.3-9 1.7-1.5.2-3 .3-4.5.4-1 .1-1.9.1-2.9.1-.8 0-1.7 0-2.5-.1-1.5-.1-3-.2-4.5-.3-.3 0-.5-.1-.8-.1-3.4-.4-6.6-1.1-9.8-2-15.1-4.4-28.3-14.3-36.8-28 .9-6.5 2.1-10.5 2.2-10.9l32.8-11.1 3.3-1.1.3-.1.6-.7.2-.3 1.3-1.7h27.5l1.7 1.8.2.2.6.7.3.1 3.3 1.1 32.3 11.1c.1 0 1.4 4 2.3 10.9z" fill="#343843"/><path id="XMLID_550_" d="m85.7 88.7-5.3 37.2c-2.9.8-5.9 1.3-9 1.7-1.5.2-3 .3-4.5.4-1 .1-1.9.1-2.9.1-.8 0-1.7 0-2.5-.1-1.5-.1-3-.2-4.5-.3-.3 0-.5-.1-.8-.1l-8.4-35.1 1.7-5.5h.5 1.4l12.6-.5h.2l12.6 1.3 1.3.1z" fill="#e7e7e8"/><path id="XMLID_549_" d="m71.4 127.6c-1.5.2-3 .3-4.5.4-1 .1-1.9.1-2.9.1-.8 0-1.7 0-2.5-.1-1.5-.1-3-.2-4.5-.3l1.9-9.8 4.3-21.7-2.8-4.5-.6-.9 3.9-3.7s0 0 0-.1l.5-.5.5.5 3.9 3.7-.6 1-2.8 4.5 4.3 21.7z" fill="#d54232"/><path id="XMLID_463_" d="m55.6 86.5h17.2l7.5-12.1c-1.1-6.6 0-20 0-20h-32.2s1.1 13.5 0 20z" fill="#f1b97c"/><g id="XMLID_458_"><g id="XMLID_460_" fill="#f1b97c"><path id="XMLID_462_" d="m84.3 38.7s1-.9 2.3-.4c.4.1.7.5.9.8.5 1 1.5 3.8-.4 7.6-.5 1-.9 2-1.2 3.1-.4 1.3-1.2 3-2.9 3.5s-2.1-1.9-2.1-1.9z"/><path id="XMLID_461_" d="m43.7 38.7s-1-.9-2.3-.4c-.4.1-.7.5-.9.8-.5 1-1.5 3.8.4 7.6.5 1 .9 2 1.2 3.1.4 1.3 1.2 3 2.9 3.5s2.1-1.9 2.1-1.9z"/></g><path id="XMLID_459_" d="m84.6 37.3s-.4 10.5-5.2 27.4c0 0-4.9 8.9-10.2 10h-10.5c-5.3-1.1-10.2-10-10.2-10-4.7-16.9-5.2-27.4-5.2-27.4-.8-16.6 1.7-18.5 1.7-18.5h38s2.5 1.9 1.6 18.5z" fill="#f8cfa3"/></g><path id="XMLID_455_" d="m83.4 45.5c-.4 2-1.1 4.7-1.9 7.3-.4 1.4-.9 2.8-1.5 4-1.2 2.8-2.6 4.9-4.1 4.9h-1s1.2-5.1-4.3-7.4c-1.6-.7-3.8-1.1-6.7-1.1s-5.1.4-6.7 1.1c-5.5 2.3-4.3 7.4-4.3 7.4h-1c-1.3 0-2.5-1.6-3.6-3.8-.7-1.5-1.4-3.3-1.9-5.1-.8-2.7-1.5-5.4-1.9-7.4-.3-1.5-.5-2.5-.5-2.7v.3l.1 1.4v.1l.1 1.2.6 6.5c0 .4.1.8.1 1.1.3 2.8 1 5.5 2 8.1.5 1.2 1 2.4 1.6 3.5.9 1.7 1.9 3.3 3 4.8.6.8 1.2 1.4 1.9 2 1.1 1 2.3 1.8 3.6 2.4.1 0 .1 0 .1.1 0 0 .1 0 .1.1.1 0 .1.1.2.1s.2.1.2.1c1.9.8 4 1.3 6.2 1.3 2.4 0 4.6-.5 6.7-1.5.2-.1.3-.2.5-.3 1.2-.6 2.2-1.4 3.2-2.2.7-.6 1.3-1.3 1.9-2 1.2-1.5 2.2-3.2 3.1-4.9.1-.2.3-.5.4-.7.4-.9.8-1.8 1.2-2.7 1-2.6 1.7-5.3 2-8.1.1-.4.1-.8.1-1.1l.7-7.7v-.1l.1-.7.1-.9c.2-.1 0 1-.4 2.6zm-26.3 13.8c0-1.9 3.1-3.4 6.9-3.4s6.9 1.5 6.9 3.4c0 .8-.7 1.4-1.5 1.4h-11c-.7.1-1.3-.6-1.3-1.4z" fill="#343843"/><g id="XMLID_450_" fill="#343843"><path id="XMLID_453_" d="m56 17.6s-.8-.1-1-.2c-.1-.1-7.1-1.2-7.3-1.2 0 0-7 1.9-5.9 11.8 0 0 1.4 8.5 1 10.2v.1c.1.2.5 1.2.9 2.9.1.5.2 1.1.3 1.7.1.5.1 1.1.2 1.8 0 .3 0 .6.1.9s0 .1.1.1.1 0 .2-.3.2-.9.3-2.2c.2-1.9.3-5.2.2-11 0-.6.2-1.3.4-1.9.8-1.9 2.2-3.4 4-4.4.6-.3 1.1-.7 1.5-1.1.5-.4.9-.8 1.2-1.2 0 0 .1-.1.1-.1 1.3-1.5 2.2-3.2 3.1-4.5 0 0 0-.1.1-.1.1-.1.4-.5.4-.6.1-.1.1-.2.2-.3s.2-.3.4-.4c.1.1-.1 0-.5 0z"/><path id="XMLID_451_" d="m46.8 17.8s4.1-8.7 15.3-10.9c2.4-.5 5-.2 7.3.7 1.4.5 3.2 1.2 5.1 1.7 3 .9 5.7 2.8 7.4 5.4.9 1.3 1.6 2.9 1.9 4.6.2.9.4 1.8.8 2.6.9 2.1 2.3 5.2 1.3 16.1 0 0-1.7 1.2-2.3 8.1 0 0-1.4-5.5-.7-11.7.1-1.4.1-2.8-.2-4.2-.5-2.3-1.7-5.1-4.8-5.8-.4-.1-.8-.2-1.2-.3-1.7-.5-7.3-1.7-15.4 2.3-10 5-14.5-8.6-14.5-8.6z"/></g><g id="XMLID_448_"><path id="XMLID_449_" d="m73.3 102.8s0 .1 0 0c-.9-5.5-8.4-16.1-9.1-16.3-.6.2-8.2 10.7-9.1 16.3-.4-1-10-26.3-6.6-31.9v.2.2.2c0 .2-.1.5 0 .7 4.2 10.8 14.3 13.9 15.7 14.3 1.4-.4 11.5-3.5 15.7-14.1.1-.3.1-.5 0-.7 0-.1 0-.1 0-.2s0-.2 0-.2c0-.1 0-.1 0-.2 3.3 5.4-6.2 30.7-6.6 31.7z" fill="#fcfcfc"/></g><path id="XMLID_447_" d="m64.4 86.5s-.1 0-.2 0-.2 0-.2 0 .1 0 .2 0z" fill="#fcfcfc"/><g fill="#4c525e"><path id="XMLID_554_" d="m98.9 88.7-16.8 36.7c-.5.2-1.1.3-1.7.5-2.9.8-5.9 1.3-9 1.7-1.5.2-3 .3-4.5.4.8-3.2 1.7-6.6 2.6-10.1 1.3-5 2.6-10.1 3.8-15 1.3-5.3 2.5-10.5 3.6-15 1.1-4.7 1.9-8.8 2.4-11.8.1-.4.1-.7.2-1 0-.1 0-.2 0-.3.1-.4.1-.7.2-1 0-.2.1-.3.1-.4.1-.3.2-.5.2-.7v-.1c0-.2 0-.4 0-.7 0 0-.1-.4-.1-.6 0-.1 0-.1 0-.2s0 0 0-.1l4 4.7 9.4 11.1-7.5 4.9z"/><g id="XMLID_442_"><path id="XMLID_539_" d="m61.5 127.9c-1.5-.1-3-.2-4.5-.3-.3 0-.5-.1-.8-.1-3.4-.4-6.6-1.1-9.8-2l-16.9-36.8 13 2.9-7.5-4.9 9.4-11.2 4-4.7v.2.2c-.1.2-.2.6-.2.6v.3.4.1c0 .2.1.4.2.7 0 .1.1.2.1.4.1.3.1.7.2 1.1v.3c.1.3.1.7.2 1 .5 2.8 1.3 6.5 2.2 10.9 1.1 4.8 2.4 10.3 3.8 16 1.2 4.9 2.5 10 3.8 15 1.1 3.3 2 6.7 2.8 9.9z"/><path id="XMLID_443_" d="m64.4 86.5s-.1 0-.2 0-.2 0-.2 0 .1 0 .2 0z"/></g><path id="XMLID_542_" d="m116.2 86.8c-5.7 8.6-9.4 17.4-11.9 27-.8.7-1.7 1.3-2.5 2 2.6-13.2 9.9-25.3 14.4-29z"/><path id="XMLID_541_" d="m26.2 115.6c-.8-.6-1.7-1.3-2.5-1.9-1.9-7.8-6.9-20.6-11.9-27 4 3.5 6.3 7.6 8.9 12.4 1.5 4 3.5 7.2 5.5 16.5z"/></g><g id="XMLID_432_" fill="#3c4049"><path id="XMLID_435_" d="m83.8 29.3c.1.3.2.6.3.9-.3-1.9-1.4-3.8-2.7-5.3-3.2-3.6-7.5-4.2-12.4-3.5-6.1.9-8.6 3.3-12.5 1.3-1.9-1-2.9-3-2.8-4.7-.3 1.7.6 4 2.6 5.2 2.9 1.8 5.8.8 7.8.3.2 0 .3-.1.5-.1-1.4.5-2.7 1.1-4 1.7-1.7.8-5.1.9-7.6-1.1-2-1.6-3.4-4.1-4.5-6.5 1 2.4 2.4 4.9 4.4 6.6 2.5 2.1 6 2 7.8 1.2 1.3-.7 2.7-1.3 4.2-1.8s3-.9 4.6-1.1c6-.7 9.6.9 11.6 2.8 4.1 4.1 3.2 8 3.2 12-.1-3.3.5-4.3-.5-7.9z"/><path id="XMLID_434_" d="m64.5 20.1c1.3-.2 5.5-1.7 9.7-1.3 5.5.5 9.2 4.1 10.5 8.5-1-4.4-4.7-8.2-10.4-8.8-4.2-.5-8.4 1.1-9.7 1.3-5 .8-8.1-2.3-7.9-5.6-.5 3.5 2.8 6.7 7.8 5.9z"/><path id="XMLID_433_" d="m78.7 20.9c-4.4-2.1-8.9-1.9-13.5-.5-3 1-6.9.7-8.7-2-.6-.9-1-2.3-1-3.2-.1.9.1 2.3.7 3.3 1.1 1.9 3.2 2.8 5.4 3-4.6.1-7-2.8-6.8-5.8-.4 3.4 2.8 7.6 10.6 5.4 6.3-1.7 9.6-1 12.9.3 3.5 1.9 5.5 4.8 6.1 7.3-.2-.9-.5-1.8-1-2.7.7 1 .9 1.7 1.2 2.7-.6-2.8-2.4-5.6-5.9-7.8z"/></g></g></g></g></svg>