<svg id="Layer_1" height="512" viewBox="0 0 512 512" width="512" xmlns="http://www.w3.org/2000/svg" data-name="Layer 1"><path d="m256 .479c141.381 0 256 114.659 256 256.035s-114.619 255.964-256 255.964-256-114.587-256-255.964 114.621-256.035 256-256.035zm16.314 340.96-16.274-11.02-16.232 11.223 16.2 28.7 16.31-28.906zm15.228-26.988-20.694 10.26 10.785 7.3 9.909-17.562zm-8.386-101.845v7.174a5.417 5.417 0 0 0 10.833 0v-7.174a5.417 5.417 0 0 0 -10.833 0zm-54.517 0v7.174a5.417 5.417 0 0 0 10.834 0v-7.174a5.417 5.417 0 0 0 -10.834 0zm16.6 48.783a23.606 23.606 0 0 0 31.405.233 5.412 5.412 0 1 0 -7.151-8.125 12.761 12.761 0 0 1 -17.018-.106 5.393 5.393 0 1 0 -7.236 8zm54.069-67.389a22.3 22.3 0 0 0 -21.8.764 5.392 5.392 0 0 0 5.586 9.225 11.506 11.506 0 0 1 11.258-.383 5.4 5.4 0 1 0 4.956-9.606zm-69.664 9.606a11.506 11.506 0 0 1 11.258.383 5.392 5.392 0 0 0 5.586-9.225 22.3 22.3 0 0 0 -21.795-.764 5.4 5.4 0 0 0 4.951 9.606zm6.095-21.476a55.8 55.8 0 0 1 -20.2 5.846 44.4 44.4 0 0 0 -3.291 14.81c-.591 8.046-.007 18.14 2 30.879q.053.255.081.519a58.317 58.317 0 0 0 34.257 46.974 5.391 5.391 0 0 1 2.053 1.608 16.352 16.352 0 0 0 27.826-3.555 5.4 5.4 0 0 1 4.239-3.619 33.835 33.835 0 0 0 23.5-15.175q8.862-13.363 10.593-38.067h.006c.213-5.107.316-10.634.306-16.627q-.011-6.958-.227-15a53.992 53.992 0 0 1 -24.3-7.238 55.849 55.849 0 0 1 -19.309-19.8 45.486 45.486 0 0 0 -14.313 2.215 103.583 103.583 0 0 1 -23.221 16.232zm47.934 108.694a26.777 26.777 0 0 1 -3.544 3.31 27.093 27.093 0 0 1 -37.117-3.651q-2.462-1.152-4.8-2.48-.66 1.14-1.435 2.217a27.95 27.95 0 0 1 -6.278 6.259l-4.513 3.285 34.093 18.221 35.076-17.39-5.654-4.116a28.109 28.109 0 0 1 -5.829-5.655zm-71.243-113.5a43.5 43.5 0 0 0 18.57-4.882q10.26-5.031 21.515-15.294a5.373 5.373 0 0 1 2.148-1.2 56.663 56.663 0 0 1 22.156-2.948 5.4 5.4 0 0 1 4.536 3.1q6.7 12.128 16.728 18.077 10.146 6.018 24 5.908a5.4 5.4 0 0 1 5.435 5.227c.244 7.32.37 14.107.38 20.413.011 6.324-.094 12.039-.312 17.2l-.008.147h.008q-1.931 27.573-12.37 43.315a47.5 47.5 0 0 1 -7.695 9.022 73.806 73.806 0 0 0 56.361-4.7 57.982 57.982 0 0 1 -16.671-79.716c6.046-15.244 5.715-29.81.918-42.765-5.078-13.718-15.157-25.738-28.007-34.96a104.8 104.8 0 0 0 -45.132-18.206c-20.792-3.107-42.381.286-60.021 12.487a74.66 74.66 0 0 0 -28.765 39.8 89.4 89.4 0 0 0 .267 52.43 67.658 67.658 0 0 1 -10.513 70.221 49.614 49.614 0 0 0 46.955 6.223 69.329 69.329 0 0 1 -19.336-40.874c-2.146-13.648-2.765-24.545-2.121-33.319.686-9.337 2.8-16.452 6.027-22.013a5.4 5.4 0 0 1 4.947-2.689zm127.778 192.209a5.416 5.416 0 0 1 10.832 0v49.446h35.2a5.234 5.234 0 0 0 5.131-6.684l-20.795-77.611a5.362 5.362 0 0 0 -1.133-2.2l-.011.01a5.3 5.3 0 0 0 -2.06-1.393l-59.778-23.165-42.87 75.979a5.392 5.392 0 0 1 -9.42.045l-42.9-76.024-59.774 23.164a5.308 5.308 0 0 0 -2.061 1.393c-.055.061-.111.121-.169.179a5.475 5.475 0 0 0 -.973 2.011l-20.8 77.611a5.358 5.358 0 0 0 -.111 2.44 5.192 5.192 0 0 0 5.242 4.244h35.2v-49.445a5.417 5.417 0 0 1 10.834 0v49.446h160.416zm-112.655-56.695 10.924 19.36 11.03-7.627z" fill-rule="evenodd"/></svg>